<svg width="118" height="36" viewBox="0 0 118 36" fill="none" xmlns="http://www.w3.org/2000/svg">
<path d="M0.0500001 -2.38419e-06H14.6V5H5.55V14.75H12.65V19.75H5.55V35H0.0500001V-2.38419e-06ZM25.2375 35.5C22.5708 35.5 20.5375 34.75 19.1375 33.25C17.7375 31.7167 17.0375 29.5333 17.0375 26.7V-2.38419e-06H22.5375V27.1C22.5375 28.3 22.7708 29.1667 23.2375 29.7C23.7375 30.2333 24.4375 30.5 25.3375 30.5C26.2375 30.5 26.9208 30.2333 27.3875 29.7C27.8875 29.1667 28.1375 28.3 28.1375 27.1V-2.38419e-06H33.4375V26.7C33.4375 29.5333 32.7375 31.7167 31.3375 33.25C29.9375 34.75 27.9042 35.5 25.2375 35.5ZM37.3547 -2.38419e-06H52.3547V5H42.8547V14.25H50.4047V19.25H42.8547V30H52.3547V35H37.3547V-2.38419e-06ZM55.5188 -2.38419e-06H61.0188V30H70.0688V35H55.5188V-2.38419e-06ZM88.7141 35.5C86.0474 35.5 84.0141 34.75 82.6141 33.25C81.2141 31.7167 80.5141 29.5333 80.5141 26.7V-2.38419e-06H86.0141V27.1C86.0141 28.3 86.2474 29.1667 86.7141 29.7C87.2141 30.2333 87.9141 30.5 88.8141 30.5C89.7141 30.5 90.3974 30.2333 90.8641 29.7C91.3641 29.1667 91.6141 28.3 91.6141 27.1V-2.38419e-06H96.9141V26.7C96.9141 29.5333 96.2141 31.7167 94.8141 33.25C93.4141 34.75 91.3807 35.5 88.7141 35.5ZM100.831 -2.38419e-06H108.931C111.665 -2.38419e-06 113.715 0.733331 115.081 2.2C116.448 3.66666 117.131 5.81666 117.131 8.65V12.1C117.131 14.9333 116.448 17.0833 115.081 18.55C113.715 20.0167 111.665 20.75 108.931 20.75H106.331V35H100.831V-2.38419e-06ZM108.931 15.75C109.831 15.75 110.498 15.5 110.931 15C111.398 14.5 111.631 13.65 111.631 12.45V8.3C111.631 7.1 111.398 6.25 110.931 5.75C110.498 5.25 109.831 5 108.931 5H106.331V15.75H108.931Z" fill="#C55D17"/>
</svg>
